<svg xmlns="http://www.w3.org/2000/svg" viewBox="0 0 279.86 68.09"><defs><style>.cls-1{fill:#ffffff;}.cls-2{fill:#ffffff;}.cls-3{fill:#ffffff;}</style></defs><title>Asset 1</title><g id="Layer_2" data-name="Layer 2"><g id="Layer_1-2" data-name="Layer 1"><path class="cls-1" d="M37.66,47.39a10,10,0,0,0-6.4,2.3,12.91,12.91,0,0,0-2,2.1,8.3,8.3,0,0,1-3.4,2,6.92,6.92,0,0,1-4.9-.4c-2.2-1-3.3-3.2-5.4-4.5A10.4,10.4,0,0,0,3.46,50a10.29,10.29,0,0,0,6.8,18,10,10,0,0,0,6.4-2.3c.9-.7,1.4-1.6,2.3-2.4a7.82,7.82,0,0,1,3.5-1.8,6.55,6.55,0,0,1,5.1.8c2,1.1,3.1,3.2,5.1,4.3a10.41,10.41,0,0,0,12.1-1.4,10.54,10.54,0,0,0,2.6-11.3,10.68,10.68,0,0,0-9.7-6.5"/><path class="cls-2" d="M28.66,5.09a10.39,10.39,0,0,0-1.1,7.5,18.87,18.87,0,0,1,.9,3.4,7.11,7.11,0,0,1-.6,3.8,8.24,8.24,0,0,1-4.1,3.7c-1,.4-2.2.4-3.3.8a9.41,9.41,0,0,0-3.1,1.7,10.42,10.42,0,0,0-3.3,11.7,10.32,10.32,0,0,0,19.6-.8,11.37,11.37,0,0,0,.3-3.7,27.92,27.92,0,0,0-1-3.9,8.14,8.14,0,0,1,1.1-5.9,6.61,6.61,0,0,1,2.4-2,9.18,9.18,0,0,1,3.2-1,10.06,10.06,0,0,0,5.7-3.5,10.38,10.38,0,0,0,.8-12c-3.8-6.6-13.7-6.5-17.5.2"/><path class="cls-3" d="M42.36,39.09a10.19,10.19,0,0,0,5.2,4.4,16.36,16.36,0,0,0,2.8.7,8.91,8.91,0,0,1,3.3,1.8,6.15,6.15,0,0,1,2.2,4.6,8.72,8.72,0,0,1-.7,3.9A10.25,10.25,0,0,0,63,67.79a10.59,10.59,0,0,0,10.9-4.9A10.18,10.18,0,0,0,67,47.69c-2.1-.4-4.4-1.3-5.5-3.3a7.66,7.66,0,0,1-.6-6.6,9.75,9.75,0,0,0,0-7.5,10.28,10.28,0,1,0-18.5,8.8"/><path class="cls-1" d="M214.56,33.09h-6a.43.43,0,0,0-.4.4v-.1l-8.1,24.2c-.1.1-.2.2-.3.2h-.1c-.2,0-.3-.1-.3-.2l-8.1-24.2v.1a.43.43,0,0,0-.4-.4h-6a.43.43,0,0,0-.4.4h0v.1h0l.1.2,12.3,33.6c.1.2.2.3.4.2h4.6a.37.37,0,0,0,.5-.2l12.3-33.6.1-.3v-.1C215,33.29,214.76,33.09,214.56,33.09Z"/><path class="cls-1" d="M146.46,38.39h0a.37.37,0,0,0,.1-.3v-4.6a.43.43,0,0,0-.4-.4h-23.9a.43.43,0,0,0-.4.4v4.8a.43.43,0,0,0,.4.4h16c.1,0,.3.1.3.2s0,.3,0,.4l-17.5,23.2h0v.1h0c0,.1-.1.1-.1.2v4.7a.43.43,0,0,0,.4.4h24.9a.43.43,0,0,0,.4-.4v-5.2a.43.43,0,0,0-.4-.4h-17c-.1,0-.3-.1-.3-.2s0-.3,0-.4Z"/><path class="cls-1" d="M99.26,32.69c-4.8,0-8.3,1.2-10.9,4.2-.1.1-.2.2-.2.3s.1-.1.1,0h-.1c-.1.2-.1.4.1.5h0l4.1,3.1h0l.3.2h0c.2.1.4.1.5-.1,1.1-1.6,3-2.3,6.6-2.3,2.6,0,4.4.3,5.7,1.1a4.13,4.13,0,0,1,1.9,3.8v3.7a.35.35,0,0,1-.4.4h-9.8c-7.4,0-11.1,4.6-11.1,10.1,0,5.9,4.4,10.4,12.1,10.4,4.8,0,7-1.1,8.4-3.4.1-.1.2-.2.3-.2h.1a.35.35,0,0,1,.4.4v2.4a.43.43,0,0,0,.4.4h5.6a.43.43,0,0,0,.4-.4V44C113.56,35.49,108,32.79,99.26,32.69Zm7.9,23c0,2.8-.5,4.5-1.9,5.4s-3.4,1.1-6.4,1.1a8.73,8.73,0,0,1-5.4-1.4,4.08,4.08,0,0,1-1.7-3.4,4,4,0,0,1,1.6-3.4,8.1,8.1,0,0,1,4.8-1.2h8.5a.35.35,0,0,1,.4.4l.1,2.5Z"/><path class="cls-1" d="M165.06,32.69c-4.8,0-8.3,1.2-10.9,4.2l-.3.3s.1-.1.1,0h-.1c-.1.2-.1.4.1.5h0l4.1,3.1h0l.3.2h0c.2.1.4.1.5-.1,1.1-1.6,3-2.3,6.6-2.3,2.6,0,4.4.3,5.7,1.1a4.13,4.13,0,0,1,1.9,3.8v3.7a.35.35,0,0,1-.4.4h-9.8c-7.4,0-11.1,4.6-11.1,10.1,0,5.9,4.4,10.4,12.1,10.4,4.8,0,7-1.1,8.4-3.4.1-.1.2-.2.3-.2h.1a.35.35,0,0,1,.4.4v2.4a.43.43,0,0,0,.4.4h5.6a.43.43,0,0,0,.4-.4V44C179.36,35.49,173.76,32.79,165.06,32.69Zm8,23c0,2.8-.5,4.5-1.9,5.4s-3.4,1.1-6.4,1.1a8.73,8.73,0,0,1-5.4-1.4,4.08,4.08,0,0,1-1.7-3.4,4,4,0,0,1,1.6-3.4,8.1,8.1,0,0,1,4.8-1.2h8.5a.35.35,0,0,1,.4.4v2.5Z"/><path class="cls-1" d="M232.56,32.69c-6.7,0-14.2,4.2-14.2,17.8,0,14.3,8.2,17.6,15.3,17.6a15.78,15.78,0,0,0,11.7-4.8l.2-.2h0c.1-.2.1-.4-.1-.5l-4.1-3.5h0a.45.45,0,0,0-.5,0h0a11.63,11.63,0,0,1-7.5,3.1,8.29,8.29,0,0,1-8.8-9.1.35.35,0,0,1,.4-.4h21.3a.43.43,0,0,0,.4-.4v-5.1C246.76,38.29,240.16,32.69,232.56,32.69Zm7.7,14.8a.37.37,0,0,1-.3.1h-14.9a.35.35,0,0,1-.4-.4c.1-5.5,3.5-8.6,7.8-8.6s7.6,3.1,7.8,8.6A.19.19,0,0,1,240.26,47.49Z"/><path class="cls-1" d="M265.36,32.69c-4.8,0-8.3,1.2-10.9,4.2l-.3.3s.1-.1.1,0h-.1c-.1.2-.1.4.1.5h0l4.1,3.1h0l.3.2h.1c.2.1.4.1.5-.1,1.1-1.6,3-2.3,6.6-2.3,2.6,0,4.4.3,5.7,1.1a4.13,4.13,0,0,1,1.9,3.8v3.7a.35.35,0,0,1-.4.4h-9.8c-7.4,0-11.1,4.6-11.1,10.1,0,5.9,4.4,10.4,12.1,10.4,4.8,0,7-1.1,8.4-3.4.1-.1.2-.2.3-.2h.1a.35.35,0,0,1,.4.4v2.4a.43.43,0,0,0,.4.4h5.6a.43.43,0,0,0,.4-.4V44C279.66,35.49,274.06,32.79,265.36,32.69Zm8,23c0,2.8-.5,4.5-1.9,5.4s-3.4,1.1-6.4,1.1a8.73,8.73,0,0,1-5.4-1.4,4.08,4.08,0,0,1-1.7-3.4,4,4,0,0,1,1.6-3.4,8.1,8.1,0,0,1,4.8-1.2h8.5a.35.35,0,0,1,.4.4v2.5Z"/></g></g></svg>