<svg height="15" viewBox="0 0 14 15" width="14" xmlns="http://www.w3.org/2000/svg"><path d="m7.37459713 11.0941398 4.15896377-4.16171414c.3445465-.34451975.101177-.93240897-.3855353-.93240897h-2.39804646v-4.59373905c0-.36366567-.29258277-.65624843-.65624844-.65624843h-2.18749478c-.36366567 0-.65624844.29258276-.65624844.65624843v4.59373905h-2.40077018c-.48671225 0-.73008173.58788922-.38556198.93240897l4.16446456 4.16171414c.20507763.2050777.54139962.2050777.74647725 0zm5.96912107 3.655856c.3636657 0 .6562484-.2925827.6562484-.6562484v-3.0624927c0-.3636657-.2925827-.6562484-.6562484-.6562484h-4.01132392l-1.33984055 1.3398405c-.54959738.5495974-1.43554345.5495974-1.98514084 0l-1.33984055-1.3398405h-4.0113239c-.36366567 0-.65624844.2925827-.65624844.6562484v3.0624927c0 .3636657.29258277.6562484.65624844.6562484zm-3.2812422-.7656231c-.30078052 0-.54687369-.2460932-.54687369-.5468737 0-.3007806.24609317-.5468737.54687369-.5468737.3007805 0 .5468737.2460931.5468737.5468737 0 .3007805-.2460932.5468737-.5468737.5468737zm1.7499958 0c-.3007805 0-.5468737-.2460932-.5468737-.5468737 0-.3007806.2460932-.5468737.5468737-.5468737.3007806 0 .5468737.2460931.5468737.5468737 0 .3007805-.2460931.5468737-.5468737.5468737z" fill="#8a9093"/></svg>