<svg height="40" viewBox="0 0 40 40" width="40" xmlns="http://www.w3.org/2000/svg"><g fill="none" fill-rule="evenodd"><circle cx="20" cy="20" fill="#b52272" r="20"/><path d="m14.4767941 27.0379675 5.5231889-5.5227529 5.5227529 5.5227529c.1392906.139247.3656433.139247.5048903 0l1.0103039-1.0103038c.139247-.139247.139247-.3655997 0-.5048903l-5.522753-5.522753 5.522753-5.5227529c.139247-.1392906.139247-.3656433 0-.5048903l-1.0103039-1.0103039c-.139247-.139247-.3655997-.139247-.5048903 0l-5.5227529 5.522753-5.522753-5.5231889c-.1392906-.1392906-.3656433-.1392906-.5048903 0l-1.0107398 1.0102602c-.1392906.1392906-.1392906.3656433 0 .5049339l5.5231889 5.5231889-5.5231889 5.522753c-.1392906.1392906-.1392906.3656433 0 .5048903l1.0102602 1.0103038c.1392906.139247.3656433.139247.504934 0z" fill="#fff" fill-rule="nonzero"/></g></svg>