<?xml version="1.0" encoding="UTF-8"?>
<svg width="428px" height="251px" viewBox="0 0 428 251" version="1.1" xmlns="http://www.w3.org/2000/svg" xmlns:xlink="http://www.w3.org/1999/xlink">
    <!-- Generator: Sketch 64 (93537) - https://sketch.com -->
    <title>Illustration of curve</title>
    <desc>Created with Sketch.</desc>
    <defs>
        <path d="M190.500351,0 C285.500351,0 285.500351,50.1221374 380.500351,67 C380.500351,67 0.500351348,67 0.500351348,67 C95.5003513,50.1221374 95.5003513,0 190.500351,0 Z" id="path-1"></path>
    </defs>
    <g id="Marketing,-Visual-Design" stroke="none" stroke-width="1" fill="none" fill-rule="evenodd">
        <g id="Marketing-Landing-Page" transform="translate(-780.000000, -2504.000000)">
            <g id="Illustration-of-curve" transform="translate(777.000000, 2507.000000)">
                <path d="M136.512934,22 C175.181878,22 169.856215,181.887204 231,221 C231,221 30,221 30,221 C97.8439897,180.305835 97.8439897,22 136.512934,22 Z" id="Triangle" fill="#F25F5C" opacity="0.8"></path>
                <g id="Line-pattern" transform="translate(29.000000, 154.000000)">
                    <mask id="mask-2" fill="white">
                        <use xlink:href="#path-1"></use>
                    </mask>
                    <g id="Mask" opacity="0.630650112"></g>
                    <g mask="url(#mask-2)" stroke="#FCE56D" stroke-linecap="square" stroke-width="2">
                        <g transform="translate(-86.000000, -22.000000)">
                            <line x1="264.5" y1="0.5" x2="371.5" y2="107.5" id="Line-5"></line>
                            <line x1="88.5" y1="0.5" x2="195.5" y2="107.5" id="Line-5-Copy-16"></line>
                            <line x1="176.5" y1="0.5" x2="283.5" y2="107.5" id="Line-5-Copy-8"></line>
                            <line x1="0.5" y1="0.5" x2="107.5" y2="107.5" id="Line-5-Copy-17"></line>
                            <line x1="308.5" y1="0.5" x2="415.5" y2="107.5" id="Line-5-Copy-4"></line>
                            <line x1="132.5" y1="0.5" x2="239.5" y2="107.5" id="Line-5-Copy-18"></line>
                            <line x1="220.5" y1="0.5" x2="327.5" y2="107.5" id="Line-5-Copy-9"></line>
                            <line x1="44.5" y1="0.5" x2="151.5" y2="107.5" id="Line-5-Copy-19"></line>
                            <line x1="286.5" y1="0.5" x2="393.5" y2="107.5" id="Line-5-Copy-2"></line>
                            <line x1="110.5" y1="0.5" x2="217.5" y2="107.5" id="Line-5-Copy-20"></line>
                            <line x1="198.5" y1="0.5" x2="305.5" y2="107.5" id="Line-5-Copy-10"></line>
                            <line x1="22.5" y1="0.5" x2="129.5" y2="107.5" id="Line-5-Copy-21"></line>
                            <line x1="330.5" y1="0.5" x2="437.5" y2="107.5" id="Line-5-Copy-5"></line>
                            <line x1="154.5" y1="0.5" x2="261.5" y2="107.5" id="Line-5-Copy-22"></line>
                            <line x1="242.5" y1="0.5" x2="349.5" y2="107.5" id="Line-5-Copy-11"></line>
                            <line x1="66.5" y1="0.5" x2="173.5" y2="107.5" id="Line-5-Copy-23"></line>
                            <line x1="275.5" y1="0.5" x2="382.5" y2="107.5" id="Line-5-Copy"></line>
                            <line x1="99.5" y1="0.5" x2="206.5" y2="107.5" id="Line-5-Copy-24"></line>
                            <line x1="187.5" y1="0.5" x2="294.5" y2="107.5" id="Line-5-Copy-12"></line>
                            <line x1="11.5" y1="0.5" x2="118.5" y2="107.5" id="Line-5-Copy-25"></line>
                            <line x1="319.5" y1="0.5" x2="426.5" y2="107.5" id="Line-5-Copy-6"></line>
                            <line x1="143.5" y1="0.5" x2="250.5" y2="107.5" id="Line-5-Copy-26"></line>
                            <line x1="231.5" y1="0.5" x2="338.5" y2="107.5" id="Line-5-Copy-13"></line>
                            <line x1="55.5" y1="0.5" x2="162.5" y2="107.5" id="Line-5-Copy-27"></line>
                            <line x1="297.5" y1="0.5" x2="404.5" y2="107.5" id="Line-5-Copy-3"></line>
                            <line x1="121.5" y1="0.5" x2="228.5" y2="107.5" id="Line-5-Copy-28"></line>
                            <line x1="209.5" y1="0.5" x2="316.5" y2="107.5" id="Line-5-Copy-14"></line>
                            <line x1="33.5" y1="0.5" x2="140.5" y2="107.5" id="Line-5-Copy-29"></line>
                            <line x1="341.5" y1="0.5" x2="448.5" y2="107.5" id="Line-5-Copy-7"></line>
                            <line x1="353" y1="0.5" x2="460" y2="107.5" id="Line-5-Copy-32"></line>
                            <line x1="364" y1="0.5" x2="471" y2="107.5" id="Line-5-Copy-33"></line>
                            <line x1="375" y1="0.5" x2="482" y2="107.5" id="Line-5-Copy-34"></line>
                            <line x1="165.5" y1="0.5" x2="272.5" y2="107.5" id="Line-5-Copy-30"></line>
                            <line x1="253.5" y1="0.5" x2="360.5" y2="107.5" id="Line-5-Copy-15"></line>
                            <line x1="77.5" y1="0.5" x2="184.5" y2="107.5" id="Line-5-Copy-31"></line>
                        </g>
                    </g>
                </g>
                <path id="Line-4" d="M18.5,-2.28972886 L19.3715755,-0.74026124 L26.1215755,11.2597388 L26.6118368,12.1313143 L24.8686857,13.1118368 L24.3784245,12.2402612 L19.5,3.567 L19.5,231.5 L17.5,231.5 L17.5,3.567 L12.6215755,12.2402612 L12.1313143,13.1118368 L10.3881632,12.1313143 L10.8784245,11.2597388 L17.6284245,-0.74026124 L18.5,-2.28972886 Z" fill="#86E2FF" fill-rule="nonzero"></path>
                <path id="Line-4-Copy" d="M416.368686,222.388163 L417.240261,222.878424 L429.240261,229.628424 L430.789729,230.5 L429.240261,231.371576 L417.240261,238.121576 L416.368686,238.611837 L415.388163,236.868686 L416.259739,236.378424 L424.932,231.5 L18,231.5 L18,229.5 L424.932,229.5 L416.259739,224.621576 L415.388163,224.131314 L416.368686,222.388163 Z" fill="#86E2FF" fill-rule="nonzero"></path>
                <line x1="30.4634146" y1="133.75" x2="410" y2="133.5" id="Line-Copy" stroke="#86E2FF" stroke-width="2" stroke-linecap="square" stroke-dasharray="6,4"></line>
                <text id="Time-since-first-cas" font-family="IBMPlexSans-Medium, IBM Plex Sans" font-size="11" font-weight="400" fill="#86E2FF">
                    <tspan x="157.141" y="247">TIME SINCE FIRST CASE</tspan>
                </text>
                <text id="Number-of-cases" transform="translate(7.500000, 114.000000) rotate(-90.000000) translate(-7.500000, -114.000000) " font-family="IBMPlexSans-Medium, IBM Plex Sans" font-size="11" font-weight="400" fill="#86E2FF">
                    <tspan x="-42" y="118">NUMBER OF CASES</tspan>
                </text>
                <text id="Healthcare-system-ca" font-family="IBMPlexSans-Medium, IBM Plex Sans" font-size="11" font-weight="400" fill="#86E2FF">
                    <tspan x="242.987" y="126">HEALTHCARE SYSTEM CAPACITY</tspan>
                </text>
            </g>
        </g>
    </g>
</svg>