<svg height="18" viewBox="0 0 124 18" width="124" xmlns="http://www.w3.org/2000/svg"><g fill="none" transform="translate(.1 .18)"><path d="m5.08 14.04c1.09333333 0 2.03666667-.26 2.83-.78s1.38333333-1.2333333 1.77-2.14c.04-.12.00666667-.2-.1-.24l-1.7-.82c-.12-.06666667-.20666667-.0333333-.26.1-.22666667.48-.53666667.8933333-.93 1.24s-.93.52-1.61.52c-.65333333 0-1.17666667-.16-1.57-.48s-.68333333-.76-.87-1.32c-.04-.13333333-.07666667-.27666667-.11-.43s-.06-.34666667-.08-.58-.03333333-.51333333-.04-.84-.01-.74333333-.01-1.25l.0004-.2864c.00106667-.36906667.00426667-.68693333.0096-.9536.00666667-.33333333.02-.61666667.04-.85s.04666667-.42333333.08-.57.07-.29333333.11-.44c.18666667-.56.47666667-1 .87-1.32s.91666667-.48 1.57-.48c.68 0 1.21666667.17333333 1.61.52s.70333333.76.93 1.24c.05333333.13333333.14.16666667.26.1l1.7-.82c.10666667-.04.14-.12.1-.24-.38666667-.90666667-.97666667-1.62-1.77-2.14s-1.73666667-.78-2.83-.78c-1.16 0-2.15.27666667-2.97.83s-1.40333333 1.39-1.75 2.51c-.06666667.21333333-.12333333.42333333-.17.63s-.08333333.44666667-.11.72-.04666667.59666667-.06.97-.02.82666667-.02 1.36l.00055556.26583333c.00185185.43055556.00833333.79861111.01944444 1.10416667.01333333.36666667.03333333.68666667.06.96s.06333333.51333333.11.72c.04666667.2066667.10333333.4166667.17.63.34666667 1.12.93 1.9566667 1.75 2.51s1.81.83 2.97.83zm10.56 0c.9733333 0 1.81-.2333333 2.51-.7s1.1833333-1.12 1.45-1.96c.1066667-.3466667.1866667-.6966667.24-1.05.0533333-.35333333.08-.79666667.08-1.33s-.0266667-.97666667-.08-1.33-.1333333-.70333333-.24-1.05c-.2666667-.84-.75-1.49333333-1.45-1.96s-1.5366667-.7-2.51-.7c-.9866667 0-1.83.23333333-2.53.7s-1.1833333 1.12-1.45 1.96c-.1066667.34666667-.1866667.69666667-.24 1.05s-.08.79666667-.08 1.33.0266667.97666667.08 1.33c.0533333.3533333.1333333.7033333.24 1.05.2666667.84.75 1.4933333 1.45 1.96s1.5433333.7 2.53.7zm0-2c-.4533333 0-.8333333-.11-1.14-.33s-.5333333-.53-.68-.93c-.08-.2533333-.1333333-.51-.16-.77s-.04-.59666667-.04-1.01.0133333-.74666667.04-1 .08-.51333333.16-.78c.1466667-.4.3733333-.71.68-.93s.6866667-.33 1.14-.33.83.11 1.13.33.5233333.53.67.93c.08.26666667.1333333.52666667.16.78s.04.58666667.04 1-.0133333.75-.04 1.01-.08.5166667-.16.77c-.1466667.4-.37.71-.67.93s-.6766667.33-1.13.33zm10.88 1.78c.1333333 0 .22-.0666667.26-.2l3.4-9.24c.04-.13333333-.0133333-.2-.16-.2h-1.92c-.12 0-.2.06666667-.24.2l-2.08 6.26h-.04l-2.12-6.26c-.04-.13333333-.12-.2-.24-.2h-1.96c-.1466667 0-.2.06666667-.16.2l3.4 9.24c.04.1333333.1266667.2.26.2zm7.56-11.46c.1333333 0 .2-.06666667.2-.2v-1.74c0-.13333333-.0666667-.2-.2-.2h-1.84c-.1333333 0-.2.06666667-.2.2v1.74c0 .13333333.0666667.2.2.2zm0 11.46c.1333333 0 .2-.0666667.2-.2v-9.24c0-.13333333-.0666667-.2-.2-.2h-1.84c-.1333333 0-.2.06666667-.2.2v9.24c0 .1333333.0666667.2.2.2zm6.28.22c.6533333 0 1.1866667-.1066667 1.6-.32s.7333333-.4866667.96-.82h.02v.72c0 .1333333.0666667.2.2.2h1.84c.1333333 0 .2-.0666667.2-.2v-13.2c0-.13333333-.0666667-.2-.2-.2h-1.84c-.1333333 0-.2.06666667-.2.2v4.68h-.02c-.2266667-.33333333-.5466667-.60666667-.96-.82s-.9466667-.32-1.6-.32c-.8266667 0-1.5266667.19333333-2.1.58s-.9866667.96666667-1.24 1.74c-.12.37333333-.2066667.75666667-.26 1.15s-.08.91666667-.08 1.57.0266667 1.1766667.08 1.57.14.7766667.26 1.15c.2533333.7733333.6666667 1.3533333 1.24 1.74s1.2733333.58 2.1.58zm.58-2c-.92 0-1.5133333-.4133333-1.78-1.24-.0666667-.2266667-.1166667-.4733333-.15-.74-.0333333-.26666667-.05-.62-.05-1.06s.0166667-.79333333.05-1.06.0833333-.51333333.15-.74c.2666667-.82666667.86-1.24 1.78-1.24.9333333 0 1.5333333.41333333 1.8 1.24.0666667.22666667.1166667.47333333.15.74s.05.62.05 1.06-.0166667.79333333-.05 1.06c-.0333333.2666667-.0833333.5133333-.15.74-.2666667.8266667-.8666667 1.24-1.8 1.24z" fill="#fff"/><path d="m52.82 14.04c1.0933333 0 2.0366667-.26 2.83-.78s1.3833333-1.2333333 1.77-2.14c.04-.12.0066667-.2-.1-.24l-1.7-.82c-.12-.06666667-.2066667-.0333333-.26.1-.2266667.48-.5366667.8933333-.93 1.24s-.93.52-1.61.52c-.6533333 0-1.1766667-.16-1.57-.48s-.6833333-.76-.87-1.32c-.04-.13333333-.0766667-.27666667-.11-.43s-.06-.34666667-.08-.58-.0333333-.51333333-.04-.84-.01-.74333333-.01-1.25l.0004-.2864c.0010667-.36906667.0042667-.68693333.0096-.9536.0066667-.33333333.02-.61666667.04-.85s.0466667-.42333333.08-.57.07-.29333333.11-.44c.1866667-.56.4766667-1 .87-1.32s.9166667-.48 1.57-.48c.68 0 1.2166667.17333333 1.61.52s.7033333.76.93 1.24c.0533333.13333333.14.16666667.26.1l1.7-.82c.1066667-.04.14-.12.1-.24-.3866667-.90666667-.9766667-1.62-1.77-2.14s-1.7366667-.78-2.83-.78c-1.16 0-2.15.27666667-2.97.83s-1.4033333 1.39-1.75 2.51c-.0666667.21333333-.1233333.42333333-.17.63s-.0833333.44666667-.11.72-.0466667.59666667-.06.97-.02.82666667-.02 1.36l.0005556.26583333c.0018518.43055556.0083333.79861111.0194444 1.10416667.0133333.36666667.0333333.68666667.06.96s.0633333.51333333.11.72c.0466667.2066667.1033333.4166667.17.63.3466667 1.12.93 1.9566667 1.75 2.51s1.81.83 2.97.83zm9.58 0c.68 0 1.2466667-.1033333 1.7-.31s.7933333-.4766667 1.02-.81h.02v.7c0 .1333333.0666667.2.2.2h1.68c.1333333 0 .2-.0666667.2-.2v-6.3c0-1.17333333-.3033333-2.02666667-.91-2.56s-1.6433333-.8-3.11-.8c-.8 0-1.4733333.08666667-2.02.26s-1.0133333.4-1.4.68c-.0933333.06666667-.1066667.15333333-.04.26l.74 1.32c.0666667.12.16.13333333.28.04.2266667-.18666667.5133333-.34333333.86-.47s.7933333-.19 1.34-.19c.8133333 0 1.3733333.12666667 1.68.38s.46.66.46 1.22v.46c0 .08-.04.12-.12.12h-1.96c-1.2 0-2.1433333.24666667-2.83.74s-1.03 1.2666667-1.03 2.32c0 .5066667.0866667.9433333.26 1.31s.4066667.67.7.91.6366667.42 1.03.54.81.18 1.25.18zm.56-1.82c-1.1066667 0-1.66-.4-1.66-1.2 0-.4533333.1666667-.7833333.5-.99.3333333-.20666667.86-.31 1.58-.31h1.6c.08 0 .12.04.12.12v.74c0 .56-.1833333.9733333-.55 1.24s-.8966667.4-1.59.4zm9.14 1.6c.1333333 0 .2-.0666667.2-.2v-5.22c0-.77333333.1433333-1.37333333.43-1.8s.75-.64 1.39-.64c.2666667 0 .5133333.04.74.12s.4533333.19333333.68.34c.1066667.08.2.06666667.28-.04l1.06-1.34c.0666667-.09333333.0533333-.18666667-.04-.28-.2533333-.25333333-.5566667-.45-.91-.59s-.7233333-.21-1.11-.21c-.6133333 0-1.1266667.11333333-1.54.34s-.7333333.52666667-.96.9h-.02v-.82c0-.13333333-.0666667-.2-.2-.2h-1.84c-.1333333 0-.2.06666667-.2.2v9.24c0 .1333333.0666667.2.2.2zm10.26.22c.8933333 0 1.6733333-.1533333 2.34-.46s1.2066667-.7 1.62-1.18c.08-.1066667.0733333-.2-.02-.28l-1.18-1.04c-.0933333-.08-.1933333-.0666667-.3.04-.24.2666667-.54.4866667-.9.66s-.8133333.26-1.36.26c-1.1066667 0-1.8266667-.4866667-2.16-1.46-.04-.1066667-.0733333-.22-.1-.34s-.04-.25333333-.04-.4c0-.08.04-.12.12-.12h5.94c.1466667 0 .22-.06666667.22-.2 0-.38666667-.0066667-.72333333-.02-1.01s-.0333333-.54333333-.06-.77-.06-.42666667-.1-.6-.0866667-.34666667-.14-.52c-.2666667-.82666667-.7433333-1.47666667-1.43-1.95s-1.53-.71-2.53-.71c-.96 0-1.79.23333333-2.49.7s-1.1833333 1.12-1.45 1.96c-.1066667.30666667-.1866667.65333333-.24 1.04s-.08.83333333-.08 1.34.03.95.09 1.33.1433333.7233333.25 1.03c.2666667.84.7466667 1.4966667 1.44 1.97s1.5533333.71 2.58.71zm1.8-6h-3.78c-.08 0-.12-.04-.12-.12 0-.30666667.04-.58.12-.82.1333333-.38666667.3666667-.69.7-.91s.7333333-.33 1.2-.33c.4533333 0 .8466667.11 1.18.33s.5666667.52333333.7.91c.08.24.12.51333333.12.82 0 .08-.04.12-.12.12zm6.76 5.78c.1333333 0 .2-.0666667.2-.2v-8.32h.08l2.88 6.4c.08.1733333.2066667.26.38.26h1.16c.1733333 0 .3-.0866667.38-.26l2.88-6.4h.08v8.32c0 .1333333.0666667.2.2.2h1.74c.133333 0 .2-.0666667.2-.2v-13.2c0-.13333333-.066667-.2-.2-.2h-1.76c-.1733333 0-.2866667.06666667-.34.2l-3.68 8.38h-.08l-3.74-8.38c-.0533333-.13333333-.1666667-.2-.34-.2h-1.78c-.1333333 0-.2.06666667-.2.2v13.2c0 .1333333.0666667.2.2.2zm15.94.22c.68 0 1.246667-.1033333 1.7-.31s.793333-.4766667 1.02-.81h.02v.7c0 .1333333.066667.2.2.2h1.68c.133333 0 .2-.0666667.2-.2v-6.3c0-1.17333333-.303333-2.02666667-.91-2.56s-1.643333-.8-3.11-.8c-.8 0-1.473333.08666667-2.02.26s-1.013333.4-1.4.68c-.093333.06666667-.106667.15333333-.04.26l.74 1.32c.066667.12.16.13333333.28.04.226667-.18666667.513333-.34333333.86-.47s.793333-.19 1.34-.19c.813333 0 1.373333.12666667 1.68.38s.46.66.46 1.22v.46c0 .08-.04.12-.12.12h-1.96c-1.2 0-2.143333.24666667-2.83.74s-1.03 1.2666667-1.03 2.32c0 .5066667.086667.9433333.26 1.31s.406667.67.7.91.636667.42 1.03.54.81.18 1.25.18zm.56-1.82c-1.106667 0-1.66-.4-1.66-1.2 0-.4533333.166667-.7833333.5-.99.333333-.20666667.86-.31 1.58-.31h1.6c.08 0 .12.04.12.12v.74c0 .56-.183333.9733333-.55 1.24s-.896667.4-1.59.4zm9.14 5.2c.133333 0 .2-.0666667.2-.2v-4.32h.02c.226667.3333333.546667.6066667.96.82s.946667.32 1.6.32c.826667 0 1.526667-.1933333 2.1-.58s.986667-.9666667 1.24-1.74c.12-.3733333.206667-.7566667.26-1.15s.08-.91666667.08-1.57-.026667-1.17666667-.08-1.57-.14-.77666667-.26-1.15c-.253333-.77333333-.666667-1.35333333-1.24-1.74s-1.273333-.58-2.1-.58c-.653333 0-1.186667.10666667-1.6.32s-.733333.48666667-.96.82h-.02v-.72c0-.13333333-.066667-.2-.2-.2h-1.84c-.133333 0-.2.06666667-.2.2v12.84c0 .1333333.066667.2.2.2zm2.2-5.38c-.933333 0-1.533333-.4133333-1.8-1.24-.066667-.2266667-.116667-.4733333-.15-.74-.033333-.26666667-.05-.62-.05-1.06s.016667-.79333333.05-1.06.083333-.51333333.15-.74c.266667-.82666667.866667-1.24 1.8-1.24.92 0 1.513333.41333333 1.78 1.24.066667.22666667.116667.47333333.15.74s.05.62.05 1.06-.016667.79333333-.05 1.06c-.033333.2666667-.083333.5133333-.15.74-.266667.8266667-.86 1.24-1.78 1.24z" fill="#86e2ff"/></g></svg>