<svg height="12" viewBox="0 0 12 12" width="12" xmlns="http://www.w3.org/2000/svg"><path d="m1.8383173 11.7108261 3.78666929-3.78739023 3.78701261 3.78704693c.21903939.2190051.57444626.2190051.793829 0l.8799684-.8799684c.2190051-.2190394.2190051-.5744463 0-.793829l-3.78739023-3.78666931 3.78704693-3.7870126c.2190051-.2190394.2190051-.57444627 0-.79382898l-.8799684-.87996846c-.21903944-.21900506-.57444631-.21900506-.79382902 0l-3.78666929 3.78739027-3.78701261-3.78704694c-.21903939-.21900507-.57444626-.21900507-.79382898 0l-.87962513.87962513c-.21900506.21900506-.21900506.57444626 0 .79382898l3.78704694 3.7870126-3.78704694 3.78701261c-.21900506.2190394-.21900506.5744463 0 .793829l.87996845.8799684c.2190394.2190051.57444627.2190051.79382898 0z" fill="#222"/></svg>